<svg width="30" height="30" viewBox="0 0 30 30" fill="none" xmlns="http://www.w3.org/2000/svg">
<rect width="30" height="30" rx="15" fill="white"/>
<path fill-rule="evenodd" clip-rule="evenodd" d="M10.2271 10.227C10.5199 9.93409 10.9948 9.93409 11.2877 10.227L19.773 18.7123C20.0659 19.0052 20.0659 19.48 19.773 19.7729C19.4801 20.0658 19.0052 20.0658 18.7123 19.7729L10.2271 11.2876C9.93416 10.9948 9.93416 10.5199 10.2271 10.227Z" fill="#100F11"/>
<path fill-rule="evenodd" clip-rule="evenodd" d="M19.7729 10.227C20.0658 10.5199 20.0658 10.9948 19.7729 11.2876L11.2877 19.7729C10.9948 20.0658 10.5199 20.0658 10.227 19.7729C9.93411 19.48 9.93411 19.0052 10.227 18.7123L18.7123 10.227C19.0052 9.93409 19.4801 9.93409 19.7729 10.227Z" fill="#100F11"/>
</svg>
