<svg width="22" height="23" viewBox="0 0 22 23" fill="none" xmlns="http://www.w3.org/2000/svg">
    <path fill-rule="evenodd" clip-rule="evenodd"
        d="M10.6087 0.768956C11.6441 0.744677 12.7211 1.00774 13.5751 1.60558L19.7538 5.9347C19.7536 5.93455 19.7541 5.93485 19.7538 5.9347C20.3734 6.36675 20.8957 7.03285 21.2611 7.73294C21.6267 8.43333 21.875 9.24279 21.875 10V17.28C21.875 20.0031 19.6504 22.24 16.915 22.24H5.335C2.59847 22.24 0.375 20.0019 0.375 17.27V9.86C0.375 9.14953 0.599406 8.38051 0.929179 7.70839C1.259 7.03618 1.73052 6.38685 2.29401 5.9484L7.68401 1.7484C8.50875 1.10694 9.57325 0.793235 10.6087 0.768956ZM8.60546 2.93201C8.60537 2.93208 8.60554 2.93195 8.60546 2.93201L3.21599 7.1316C2.87971 7.39315 2.5359 7.83904 2.27582 8.36911C2.01559 8.89949 1.875 9.44047 1.875 9.86V17.27C1.875 19.1781 3.43153 20.74 5.335 20.74H16.915C18.8196 20.74 20.375 19.1769 20.375 17.28V10C20.375 9.54721 20.2183 8.97667 19.9314 8.42706C19.6445 7.8774 19.2663 7.42326 18.8962 7.1653L18.8946 7.16424L12.7149 2.83442C12.7148 2.83436 12.715 2.83449 12.7149 2.83442C12.169 2.45238 11.4208 2.25033 10.6438 2.26854C9.86688 2.28676 9.13071 2.52359 8.60546 2.93201Z"
        fill="#100F11" fill-opacity="0.54" />
    <path fill-rule="evenodd" clip-rule="evenodd"
        d="M11.125 13.74C11.5392 13.74 11.875 14.0758 11.875 14.49V17.49C11.875 17.9042 11.5392 18.24 11.125 18.24C10.7108 18.24 10.375 17.9042 10.375 17.49V14.49C10.375 14.0758 10.7108 13.74 11.125 13.74Z"
        fill="#100F11" fill-opacity="0.54" />
</svg>
