<svg width="21" height="23" viewBox="0 0 21 23" fill="none" xmlns="http://www.w3.org/2000/svg">
    <path fill-rule="evenodd" clip-rule="evenodd"
        d="M6.375 0.75C6.78921 0.75 7.125 1.08579 7.125 1.5V4.5C7.125 4.91421 6.78921 5.25 6.375 5.25C5.96079 5.25 5.625 4.91421 5.625 4.5V1.5C5.625 1.08579 5.96079 0.75 6.375 0.75Z"
        fill="#100F11" fill-opacity="0.54" />
    <path fill-rule="evenodd" clip-rule="evenodd"
        d="M14.375 0.75C14.7892 0.75 15.125 1.08579 15.125 1.5V4.5C15.125 4.91421 14.7892 5.25 14.375 5.25C13.9608 5.25 13.625 4.91421 13.625 4.5V1.5C13.625 1.08579 13.9608 0.75 14.375 0.75Z"
        fill="#100F11" fill-opacity="0.54" />
    <path fill-rule="evenodd" clip-rule="evenodd"
        d="M4.625 10.5C4.625 10.0858 4.96079 9.75 5.375 9.75H13.375C13.7892 9.75 14.125 10.0858 14.125 10.5C14.125 10.9142 13.7892 11.25 13.375 11.25H5.375C4.96079 11.25 4.625 10.9142 4.625 10.5Z"
        fill="#100F11" fill-opacity="0.54" />
    <path fill-rule="evenodd" clip-rule="evenodd"
        d="M4.625 14.5C4.625 14.0858 4.96079 13.75 5.375 13.75H10.375C10.7892 13.75 11.125 14.0858 11.125 14.5C11.125 14.9142 10.7892 15.25 10.375 15.25H5.375C4.96079 15.25 4.625 14.9142 4.625 14.5Z"
        fill="#100F11" fill-opacity="0.54" />
    <path fill-rule="evenodd" clip-rule="evenodd"
        d="M6.33228 2.25122C6.3465 2.25041 6.36075 2.25 6.375 2.25H14.375C14.3885 2.25 14.402 2.25036 14.4155 2.25109C16.1433 2.34449 17.6456 2.72623 18.6815 3.87861C19.7041 5.01622 20.125 6.74345 20.125 9.15V15.5C20.125 15.9142 19.7892 16.25 19.375 16.25C18.9608 16.25 18.625 15.9142 18.625 15.5V9.15C18.625 6.85655 18.2109 5.59878 17.566 4.88139C16.937 4.18169 15.945 3.83837 14.3545 3.75H6.39667C4.80517 3.84331 3.81285 4.18654 3.18368 4.88551C2.53913 5.60158 2.125 6.85661 2.125 9.15V15.32C2.125 17.3692 2.38673 18.6632 3.07159 19.4694C3.72939 20.2438 4.94504 20.75 7.375 20.75H13.375C13.7892 20.75 14.125 21.0858 14.125 21.5C14.125 21.9142 13.7892 22.25 13.375 22.25H7.375C4.80496 22.25 3.02061 21.7262 1.92841 20.4406C0.863268 19.1868 0.625 17.3908 0.625 15.32V9.15C0.625 6.74339 1.04587 5.01842 2.06882 3.88198C3.10438 2.73153 4.60609 2.34971 6.33228 2.25122Z"
        fill="#100F11" fill-opacity="0.54" />
    <path fill-rule="evenodd" clip-rule="evenodd"
        d="M14.6553 16.7803C14.3456 17.0901 14.125 17.6156 14.125 18.5V19.6893L17.5643 16.25H16.375C15.4906 16.25 14.9651 16.4706 14.6553 16.7803ZM13.5947 15.7197C14.2849 15.0294 15.2594 14.75 16.375 14.75H19.375C19.6783 14.75 19.9518 14.9327 20.0679 15.213C20.184 15.4932 20.1198 15.8158 19.9053 16.0303L13.9053 22.0303C13.6908 22.2448 13.3682 22.309 13.088 22.1929C12.8077 22.0768 12.625 21.8033 12.625 21.5V18.5C12.625 17.3844 12.9044 16.4099 13.5947 15.7197Z"
        fill="#100F11" fill-opacity="0.54" />
</svg>
