<svg width="22" height="21" viewBox="0 0 22 21" fill="none" xmlns="http://www.w3.org/2000/svg">
    <path fill-rule="evenodd" clip-rule="evenodd"
        d="M10.875 8.25C9.63236 8.25 8.625 9.25736 8.625 10.5C8.625 11.7426 9.63236 12.75 10.875 12.75C12.1176 12.75 13.125 11.7426 13.125 10.5C13.125 9.25736 12.1176 8.25 10.875 8.25ZM7.125 10.5C7.125 8.42893 8.80393 6.75 10.875 6.75C12.9461 6.75 14.625 8.42893 14.625 10.5C14.625 12.5711 12.9461 14.25 10.875 14.25C8.80393 14.25 7.125 12.5711 7.125 10.5Z"
        fill="#100F11" fill-opacity="0.54" />
    <path fill-rule="evenodd" clip-rule="evenodd"
        d="M8.47847 2.27017C8.2108 1.82422 7.64709 1.6855 7.22847 1.93455L7.21756 1.94104L5.48751 2.93095C4.94014 3.24373 4.7513 3.95288 5.0644 4.49479L4.415 4.87L5.06388 4.4939C5.59895 5.41703 5.74279 6.42881 5.26482 7.25822C4.78692 8.08752 3.83979 8.47 2.775 8.47C2.14178 8.47 1.625 8.99164 1.625 9.62V11.38C1.625 12.0084 2.14178 12.53 2.775 12.53C3.83979 12.53 4.78692 12.9125 5.26482 13.7418C5.74273 14.5711 5.59898 15.5827 5.06409 16.5057C4.75142 17.0476 4.93991 17.7561 5.4871 18.0688L7.22852 19.0654C7.64714 19.3144 8.21078 19.1758 8.47845 18.7299L8.58593 18.5442C9.1208 17.6214 9.92704 16.9925 10.8837 16.9925C11.8412 16.9925 12.645 17.6219 13.175 18.5457C13.1752 18.5462 13.1754 18.5466 13.1757 18.547L13.2815 18.7298C13.5492 19.1758 14.1129 19.3145 14.5315 19.0654L14.5424 19.059L16.2725 18.069C16.8184 17.7571 17.0101 17.0578 16.6948 16.5038C16.1608 15.5813 16.0176 14.5705 16.4952 13.7418C16.9731 12.9125 17.9202 12.53 18.985 12.53C19.6182 12.53 20.135 12.0084 20.135 11.38V9.62C20.135 8.98678 19.6134 8.47 18.985 8.47C17.9202 8.47 16.9731 8.08752 16.4952 7.25822C16.0173 6.42897 16.161 5.41742 16.6958 4.49444C17.0086 3.95257 16.8201 3.2439 16.2729 2.93118L14.5315 1.93465C14.1129 1.68559 13.5492 1.82422 13.2815 2.27017L13.1741 2.45578C12.6392 3.37859 11.833 4.0075 10.8762 4.0075C9.91891 4.0075 9.11521 3.37824 8.58521 2.45454C8.58492 2.45402 8.58462 2.45351 8.58433 2.453L8.47847 2.27017ZM6.46748 0.641914C7.62691 -0.0434497 9.09757 0.377026 9.76956 1.50653L9.77412 1.5142L9.88407 1.70422L9.88567 1.707C10.2557 2.35246 10.6416 2.5075 10.8762 2.5075C11.112 2.5075 11.5009 2.35114 11.8759 1.70422C11.8759 1.70433 11.876 1.70411 11.8759 1.70422L11.9904 1.5065C12.6624 0.376994 14.1331 -0.0434534 15.2925 0.641923L17.0171 1.62882C18.2897 2.35603 18.7213 3.98712 17.9944 5.24521L17.9939 5.2461C17.6189 5.89297 17.6778 6.30619 17.7948 6.50928C17.9119 6.71248 18.2398 6.97 18.985 6.97C20.4366 6.97 21.635 8.15322 21.635 9.62V11.38C21.635 12.8316 20.4518 14.03 18.985 14.03C18.2398 14.03 17.9119 14.2875 17.7948 14.4907C17.6778 14.6938 17.6189 15.107 17.9939 15.7539L17.9962 15.7579C18.7194 17.0235 18.2907 18.6431 17.0175 19.371C17.0174 19.371 17.0176 19.3709 17.0175 19.371L15.2924 20.3581C14.133 21.0434 12.6624 20.623 11.9904 19.4935L11.9859 19.4858L11.8759 19.2958L11.8743 19.293C11.5043 18.6475 11.1184 18.4925 10.8837 18.4925C10.648 18.4925 10.2591 18.6489 9.88407 19.2958C9.88401 19.2959 9.88413 19.2957 9.88407 19.2958L9.7696 19.4935C9.09763 20.623 7.62699 21.0434 6.46757 20.3581L4.7429 19.3712C4.74276 19.3711 4.74303 19.3713 4.7429 19.3712C3.47058 18.6439 3.03878 17.0127 3.7656 15.7548L3.76612 15.7539C4.14106 15.107 4.08221 14.6938 3.96518 14.4907C3.84808 14.2875 3.52021 14.03 2.775 14.03C1.30822 14.03 0.125 12.8316 0.125 11.38V9.62C0.125 8.16835 1.30822 6.97 2.775 6.97C3.52021 6.97 3.84808 6.71248 3.96518 6.50928C4.08221 6.30619 4.14106 5.89297 3.76612 5.2461L3.7656 5.24521C3.03878 3.98725 3.47018 2.35638 4.74249 1.62905L6.46748 0.641914Z"
        fill="#100F11" fill-opacity="0.54" />
</svg>
