<svg width="21" height="23" viewBox="0 0 21 23" fill="none" xmlns="http://www.w3.org/2000/svg">
    <path fill-rule="evenodd" clip-rule="evenodd"
        d="M0.875 21.5C0.875 21.0858 1.21079 20.75 1.625 20.75H19.625C20.0392 20.75 20.375 21.0858 20.375 21.5C20.375 21.9142 20.0392 22.25 19.625 22.25H1.625C1.21079 22.25 0.875 21.9142 0.875 21.5Z"
        fill="#100F11" fill-opacity="0.54" />
    <path fill-rule="evenodd" clip-rule="evenodd"
        d="M0.875 8.88C0.875 7.91579 1.66079 7.13 2.625 7.13H4.22498C5.18919 7.13 5.97498 7.91579 5.97498 8.88V17.5C5.97498 18.4642 5.18919 19.25 4.22498 19.25H2.625C1.66079 19.25 0.875 18.4642 0.875 17.5V8.88ZM2.625 8.63C2.48921 8.63 2.375 8.74422 2.375 8.88V17.5C2.375 17.6358 2.48921 17.75 2.625 17.75H4.22498C4.36076 17.75 4.47498 17.6358 4.47498 17.5V8.88C4.47498 8.74422 4.36076 8.63 4.22498 8.63H2.625Z"
        fill="#100F11" fill-opacity="0.54" />
    <path fill-rule="evenodd" clip-rule="evenodd"
        d="M8.07495 5.69C8.07495 4.72579 8.86074 3.94 9.82495 3.94H11.4249C12.3891 3.94 13.1749 4.72579 13.1749 5.69V17.5C13.1749 18.4642 12.3891 19.25 11.4249 19.25H9.82495C8.86074 19.25 8.07495 18.4642 8.07495 17.5V5.69ZM9.82495 5.44C9.68916 5.44 9.57495 5.55422 9.57495 5.69V17.5C9.57495 17.6358 9.68916 17.75 9.82495 17.75H11.4249C11.5607 17.75 11.6749 17.6358 11.6749 17.5V5.69C11.6749 5.55422 11.5607 5.44 11.4249 5.44H9.82495Z"
        fill="#100F11" fill-opacity="0.54" />
    <path fill-rule="evenodd" clip-rule="evenodd"
        d="M15.275 2.5C15.275 1.53579 16.0608 0.75 17.025 0.75H18.625C19.5892 0.75 20.375 1.53579 20.375 2.5V17.5C20.375 18.4642 19.5892 19.25 18.625 19.25H17.025C16.0608 19.25 15.275 18.4642 15.275 17.5V2.5ZM17.025 2.25C16.8892 2.25 16.775 2.36421 16.775 2.5V17.5C16.775 17.6358 16.8892 17.75 17.025 17.75H18.625C18.7608 17.75 18.875 17.6358 18.875 17.5V2.5C18.875 2.36421 18.7608 2.25 18.625 2.25H17.025Z"
        fill="#100F11" fill-opacity="0.54" />
</svg>
